<?xml version="1.0" encoding="utf-8"?>
<!-- Generator: Adobe Illustrator 23.0.3, SVG Export Plug-In . SVG Version: 6.00 Build 0)  -->
<svg version="1.1" id="Layer_1" xmlns="http://www.w3.org/2000/svg" xmlns:xlink="http://www.w3.org/1999/xlink" x="0px" y="0px"
	 viewBox="0 0 96 96" style="enable-background:new 0 0 96 96;" xml:space="preserve">
<style type="text/css">
	.st0{clip-path:url(#SVGID_2_);}
	.st1{fill:#E5E7E7;}
</style>
<g>
	<defs>
		<rect id="SVGID_1_" width="96" height="96"/>
	</defs>
	<clipPath id="SVGID_2_">
		<use xlink:href="#SVGID_1_"  style="overflow:visible;"/>
	</clipPath>
	<g class="st0">
		<g>
			<path class="st1" d="M53.32,50.45C53.32,50.45,53.32,50.45,53.32,50.45l-10.64-0.03c-0.52,0-1-0.27-1.27-0.71
				c-0.27-0.44-0.3-0.99-0.07-1.45l5.1-10.36c0.25-0.51,0.76-0.83,1.32-0.84c0.57,0.01,1.08,0.3,1.35,0.79l5.53,10.39
				c0.25,0.47,0.23,1.03-0.04,1.48C54.33,50.17,53.84,50.45,53.32,50.45z M45.09,47.42l5.73,0.02l-2.98-5.6L45.09,47.42z"/>
		</g>
		<g>
			<path class="st1" d="M30.53,6.7c-0.01,0-0.02,0-0.02,0c-0.56-0.01-1.07-0.33-1.32-0.84L24.08-4.5c-0.23-0.46-0.2-1.01,0.07-1.45
				c0.27-0.44,0.75-0.71,1.27-0.71L36.06-6.7c0,0,0,0,0,0c0.53,0,1.01,0.28,1.28,0.73c0.27,0.45,0.29,1.01,0.04,1.48L31.85,5.9
				C31.59,6.39,31.08,6.7,30.53,6.7z M27.83-3.67l2.75,5.58l2.98-5.6L27.83-3.67z"/>
		</g>
		<g>
			<path class="st1" d="M30.53,102.7c-0.01,0-0.02,0-0.02,0c-0.56-0.01-1.07-0.33-1.32-0.84l-5.1-10.36
				c-0.23-0.46-0.2-1.01,0.07-1.45c0.27-0.44,0.75-0.71,1.27-0.71l10.64-0.03c0,0,0,0,0,0c0.53,0,1.01,0.28,1.28,0.73
				c0.27,0.45,0.29,1.01,0.04,1.48l-5.53,10.39C31.59,102.39,31.08,102.7,30.53,102.7z M27.83,92.33l2.75,5.58l2.98-5.6L27.83,92.33
				z"/>
		</g>
		<g>
			<path class="st1" d="M33.24,26.24c-0.39,0-0.78-0.11-1.13-0.35l-8.5-5.83c-0.91-0.62-1.14-1.87-0.52-2.78
				c0.63-0.91,1.87-1.14,2.78-0.52l8.5,5.83c0.91,0.62,1.14,1.87,0.52,2.78C34.5,25.93,33.88,26.24,33.24,26.24z"/>
		</g>
		<g>
			<path class="st1" d="M67.53,64.07c-0.95,0-1.79-0.67-1.96-1.63c-0.2-1.09,0.51-2.13,1.6-2.33l10.14-1.89
				c1.09-0.21,2.13,0.51,2.33,1.6c0.2,1.09-0.51,2.13-1.6,2.33l-10.14,1.89C67.77,64.06,67.65,64.07,67.53,64.07z"/>
		</g>
		<g>
			<path class="st1" d="M43.3,69.14c-0.55,0-1.1-0.23-1.5-0.67l-6.85-7.71c-0.73-0.83-0.66-2.09,0.17-2.82
				c0.83-0.73,2.09-0.66,2.82,0.17l6.85,7.71c0.73,0.83,0.66,2.09-0.17,2.82C44.24,68.98,43.77,69.14,43.3,69.14z"/>
		</g>
		<g>
			<path class="st1" d="M66.53,27.88c-0.31,0-0.63-0.07-0.93-0.23c-0.98-0.51-1.35-1.72-0.84-2.7l4.79-9.13
				c0.51-0.98,1.72-1.36,2.7-0.84c0.98,0.51,1.35,1.72,0.84,2.7l-4.79,9.13C67.95,27.49,67.25,27.88,66.53,27.88z"/>
		</g>
		<g>
			<path class="st1" d="M45.24,18.01c-0.69,0-1.36-0.36-1.73-1c-0.55-0.96-0.22-2.18,0.73-2.73l6.13-3.54
				c0.96-0.55,2.18-0.23,2.73,0.73c0.55,0.96,0.22,2.18-0.73,2.73l-6.13,3.54C45.92,17.93,45.58,18.01,45.24,18.01z"/>
		</g>
		<g>
			<path class="st1" d="M19.34,40.55c-0.89,0-1.71-0.6-1.94-1.51c-0.27-1.07,0.38-2.16,1.45-2.43l7.25-1.84
				c1.07-0.27,2.16,0.38,2.43,1.45c0.27,1.07-0.38,2.16-1.45,2.43l-7.25,1.84C19.67,40.53,19.5,40.55,19.34,40.55z"/>
		</g>
		<g>
			<path class="st1" d="M62.52,3.29c-0.31,0-0.63-0.07-0.93-0.23c-0.98-0.51-1.35-1.72-0.84-2.7l1.35-2.58
				c0.51-0.98,1.72-1.35,2.7-0.84c0.98,0.51,1.35,1.72,0.84,2.7L64.3,2.22C63.94,2.9,63.24,3.29,62.52,3.29z"/>
		</g>
		<g>
			<path class="st1" d="M62.52,99.29c-0.31,0-0.63-0.07-0.93-0.23c-0.98-0.51-1.35-1.72-0.84-2.7l1.35-2.58
				c0.51-0.98,1.72-1.35,2.7-0.84s1.35,1.72,0.84,2.7l-1.35,2.58C63.94,98.9,63.24,99.29,62.52,99.29z"/>
		</g>
		<g>
			<path class="st1" d="M38.87,79.85c-0.2,0-0.4-0.03-0.6-0.09l-3.79-1.19c-1.05-0.33-1.64-1.45-1.31-2.51
				c0.33-1.05,1.45-1.64,2.51-1.31l3.79,1.19c1.05,0.33,1.64,1.45,1.31,2.51C40.51,79.31,39.73,79.85,38.87,79.85z"/>
		</g>
		<g>
			<path class="st1" d="M84.72,8.99c-0.27,0-0.54-0.05-0.79-0.17l-2.67-1.16c-1.01-0.44-1.48-1.62-1.04-2.63
				c0.44-1.01,1.62-1.48,2.63-1.04l2.67,1.16c1.01,0.44,1.48,1.62,1.04,2.63C86.23,8.54,85.49,8.99,84.72,8.99z"/>
		</g>
		<g>
			<path class="st1" d="M10.12,83.91c-0.63,0-1.25-0.29-1.64-0.85c-0.64-0.9-0.42-2.15,0.48-2.79l8.42-5.95
				c0.9-0.64,2.15-0.42,2.79,0.48c0.64,0.9,0.42,2.15-0.48,2.79l-8.42,5.95C10.92,83.79,10.52,83.91,10.12,83.91z"/>
		</g>
		<g>
			<path class="st1" d="M80.35,89.17c-3.23,0-5.87-2.63-5.87-5.87s2.63-5.87,5.87-5.87s5.87,2.63,5.87,5.87S83.59,89.17,80.35,89.17
				z M80.35,80.44c-1.58,0-2.87,1.29-2.87,2.87s1.29,2.87,2.87,2.87s2.87-1.29,2.87-2.87S81.93,80.44,80.35,80.44z"/>
		</g>
		<g>
			<path class="st1" d="M81.16,51.97c-0.35,0-0.7-0.12-0.99-0.37c-0.62-0.54-0.69-1.49-0.14-2.12c0.32-0.37,0.28-0.93-0.08-1.25
				c-0.18-0.16-0.41-0.23-0.64-0.22c-0.24,0.02-0.45,0.12-0.61,0.3c-0.68,0.78-1.63,1.25-2.66,1.32C75,49.72,74,49.37,73.22,48.69
				c-0.78-0.68-1.25-1.63-1.32-2.66c-0.07-1.04,0.27-2.04,0.95-2.82c0.32-0.37,0.28-0.93-0.08-1.25c-0.18-0.16-0.41-0.23-0.64-0.22
				c-0.24,0.02-0.45,0.12-0.61,0.3c-1.41,1.61-3.87,1.78-5.48,0.37c-0.78-0.68-1.25-1.63-1.32-2.66c-0.07-1.04,0.27-2.04,0.95-2.82
				c0.32-0.37,0.28-0.93-0.08-1.25c-0.18-0.16-0.41-0.23-0.64-0.22c-0.24,0.02-0.45,0.12-0.61,0.3c-0.54,0.62-1.49,0.69-2.12,0.14
				c-0.62-0.54-0.69-1.49-0.14-2.12c0.68-0.78,1.63-1.25,2.66-1.32c1.04-0.07,2.04,0.27,2.82,0.95c1.61,1.41,1.78,3.87,0.37,5.48
				c-0.16,0.18-0.23,0.41-0.22,0.64c0.02,0.24,0.12,0.45,0.3,0.61c0.37,0.32,0.93,0.28,1.25-0.08c0.68-0.78,1.63-1.25,2.66-1.32
				c1.04-0.07,2.04,0.27,2.82,0.95c1.61,1.41,1.78,3.87,0.37,5.48c-0.16,0.18-0.23,0.41-0.22,0.64c0.02,0.24,0.12,0.45,0.3,0.61
				c0.37,0.32,0.93,0.28,1.25-0.08c0.68-0.78,1.63-1.25,2.66-1.32c1.04-0.06,2.04,0.27,2.82,0.95c1.61,1.41,1.78,3.87,0.37,5.48
				C82,51.79,81.58,51.97,81.16,51.97z"/>
		</g>
		<g>
			<path class="st1" d="M8.22,70.8c-0.1,0-0.2,0-0.3-0.01c-1.03-0.08-1.98-0.56-2.65-1.35c-0.54-0.63-0.47-1.58,0.16-2.11
				c0.63-0.54,1.58-0.47,2.12,0.16c0.15,0.18,0.37,0.29,0.6,0.31c0.24,0.02,0.46-0.06,0.64-0.21c0.18-0.15,0.29-0.37,0.31-0.6
				s-0.06-0.46-0.21-0.64c-1.39-1.63-1.2-4.08,0.42-5.48c0.79-0.67,1.79-1,2.83-0.92c1.03,0.08,1.98,0.56,2.65,1.35
				c0.32,0.37,0.88,0.41,1.25,0.09c0.18-0.15,0.29-0.37,0.31-0.6s-0.06-0.46-0.21-0.64c-1.39-1.63-1.2-4.08,0.42-5.48
				c0.79-0.67,1.79-1,2.83-0.92c1.03,0.08,1.98,0.56,2.65,1.35c0.32,0.37,0.88,0.41,1.25,0.1c0.18-0.15,0.29-0.37,0.31-0.6
				s-0.06-0.46-0.21-0.64c-0.54-0.63-0.47-1.58,0.16-2.11c0.63-0.54,1.58-0.47,2.12,0.16c0.67,0.79,1,1.79,0.92,2.83
				c-0.08,1.04-0.56,1.98-1.35,2.65c-1.62,1.39-4.08,1.2-5.48-0.42c-0.15-0.18-0.37-0.29-0.6-0.31c-0.24-0.02-0.46,0.06-0.64,0.21
				c-0.37,0.32-0.41,0.88-0.1,1.25c0.67,0.79,1,1.79,0.92,2.83c-0.08,1.04-0.56,1.98-1.35,2.65c-1.63,1.39-4.08,1.2-5.48-0.42
				c-0.15-0.18-0.37-0.29-0.6-0.31c-0.23-0.02-0.46,0.06-0.64,0.21c-0.18,0.15-0.29,0.37-0.31,0.6s0.06,0.46,0.21,0.64
				c0.67,0.79,1,1.79,0.92,2.83c-0.08,1.04-0.56,1.98-1.35,2.65C10.03,70.47,9.14,70.8,8.22,70.8z"/>
		</g>
		<g>
			<path class="st1" d="M56.99,82.72c-1.92,0-3.81-0.94-4.93-2.67c-0.45-0.7-0.25-1.62,0.44-2.08c0.7-0.45,1.62-0.25,2.08,0.44
				c0.86,1.33,2.64,1.7,3.96,0.84c1.32-0.86,1.7-2.64,0.84-3.96c-0.45-0.7-0.25-1.62,0.44-2.08c0.7-0.45,1.62-0.25,2.08,0.44
				c1.76,2.71,0.99,6.35-1.72,8.11C59.19,82.42,58.08,82.72,56.99,82.72z"/>
		</g>
		<g>
			<path class="st1" d="M9.3,14.64c-0.41,0-0.81-0.16-1.11-0.49C7.14,13,6.59,11.5,6.66,9.94c0.07-1.56,0.74-3.01,1.9-4.07
				c2.38-2.19,6.1-2.02,8.29,0.36c0.56,0.61,0.52,1.56-0.09,2.12c-0.61,0.56-1.56,0.52-2.12-0.09c-1.07-1.16-2.88-1.24-4.05-0.18
				c-1.16,1.07-1.24,2.88-0.18,4.05c0.56,0.61,0.52,1.56-0.09,2.12C10.03,14.51,9.67,14.64,9.3,14.64z"/>
		</g>
		<g>
			<path class="st1" d="M0,45.25c-3.23,0-5.87-2.63-5.87-5.87c0-3.23,2.63-5.87,5.87-5.87s5.87,2.63,5.87,5.87
				C5.87,42.62,3.23,45.25,0,45.25z M0,36.52c-1.58,0-2.87,1.29-2.87,2.87s1.29,2.87,2.87,2.87s2.87-1.29,2.87-2.87
				S1.58,36.52,0,36.52z"/>
		</g>
		<g>
			<path class="st1" d="M96,45.25c-3.23,0-5.87-2.63-5.87-5.87c0-3.23,2.63-5.87,5.87-5.87s5.87,2.63,5.87,5.87
				C101.87,42.62,99.23,45.25,96,45.25z M96,36.52c-1.58,0-2.87,1.29-2.87,2.87s1.29,2.87,2.87,2.87s2.87-1.29,2.87-2.87
				S97.58,36.52,96,36.52z"/>
		</g>
	</g>
</g>
</svg>
